<svg xmlns="http://www.w3.org/2000/svg" xmlns:xlink="http://www.w3.org/1999/xlink" width="500" zoomAndPan="magnify" viewBox="0 0 375 374.999991" height="500" preserveAspectRatio="xMidYMid meet" version="1.0"><defs><g/><clipPath id="ce53fbf43e"><path d="M 78.578125 149.015625 L 296.421875 149.015625 L 296.421875 222.984375 L 78.578125 222.984375 Z M 78.578125 149.015625 " clip-rule="nonzero"/></clipPath><clipPath id="b551d7afd2"><path d="M 78.585938 149.015625 L 296.078125 149.015625 L 296.078125 222.972656 L 78.585938 222.972656 Z M 78.585938 149.015625 " clip-rule="nonzero"/></clipPath></defs><rect x="-37.5" width="450" fill="#ffffff" y="-37.499999" height="449.999989" fill-opacity="1"/><rect x="-37.5" width="450" fill="#000000" y="-37.499999" height="449.999989" fill-opacity="1"/><g clip-path="url(#ce53fbf43e)"><path fill="#000000" d="M 78.578125 149.015625 L 296.429688 149.015625 L 296.429688 222.984375 L 78.578125 222.984375 Z M 78.578125 149.015625 " fill-opacity="1" fill-rule="nonzero"/></g><g clip-path="url(#b551d7afd2)"><path stroke-linecap="butt" transform="matrix(0.75, 0, 0, 0.75, 78.586053, 149.017301)" fill="none" stroke-linejoin="miter" d="M -0.000153919 -0.00223415 L 290.42693 -0.00223415 L 290.42693 98.607141 L -0.000153919 98.607141 Z M -0.000153919 -0.00223415 " stroke="#ffffff" stroke-width="8" stroke-opacity="1" stroke-miterlimit="4"/></g><path stroke-linecap="butt" transform="matrix(0.903363, 0, 0, 0.903363, 124.483312, 152.575538)" fill="none" stroke-linejoin="miter" d="M 24.635681 12.793606 C 27.9739 12.793606 30.970514 13.533031 33.616875 15.007555 C 36.271884 16.48208 38.356109 18.518739 39.865226 21.11321 C 41.378668 23.707682 42.131064 26.483766 42.131064 29.432815 C 42.131064 33.488838 41.037062 37.337303 38.853382 40.982535 C 36.665378 44.619119 33.703357 47.533575 29.971643 49.717255 C 26.239929 51.905259 22.348222 52.999261 18.292199 52.999261 L 3.412907 52.999261 L 9.765037 12.793606 Z M 15.248019 44.14779 L 17.276031 44.14779 C 21.513667 44.14779 24.882155 42.89812 27.381496 40.398779 C 29.889485 37.886466 31.143479 34.643377 31.143479 30.65654 C 31.143479 27.949642 30.295952 25.770286 28.605221 24.122797 C 26.923139 22.470984 24.406502 21.649401 21.068283 21.649401 L 18.828389 21.649401 Z M 67.089876 12.793606 L 65.69751 21.649401 L 53.274318 21.649401 L 52.210585 28.364757 L 63.993808 28.364757 L 62.61009 37.220552 L 50.813894 37.220552 L 49.693948 44.14779 L 62.130112 44.14779 L 60.737746 52.999261 L 37.858835 52.999261 L 44.215289 12.793606 Z M 84.152848 12.793606 C 88.022934 12.793606 91.080086 13.667078 93.31998 15.409698 C 95.559873 17.147994 96.67982 19.703548 96.67982 23.080684 C 96.67982 25.744341 96.09174 28.481508 94.919903 31.29651 C 93.748067 34.107187 91.849779 36.226005 89.216391 37.64864 C 86.587327 39.062627 83.638278 39.737189 80.36492 39.668003 L 74.129541 39.668003 L 71.993427 52.999261 L 61.537708 52.999261 L 67.889838 12.793606 Z M 77.00508 21.216989 L 75.457046 31.24462 L 78.021248 31.24462 C 80.970297 31.24462 82.96804 30.70843 84.010152 29.640372 C 85.060913 28.572315 85.584131 26.972391 85.584131 24.836277 C 85.584131 23.526069 85.15172 22.596383 84.282572 22.051544 C 83.417748 21.493733 82.021058 21.216989 80.105473 21.216989 Z M 137.157893 29.004727 C 137.157893 32.874813 136.042271 36.896243 133.802377 41.060369 C 131.562484 45.220171 128.397229 48.467584 124.310937 50.811257 C 120.220321 53.154929 115.827017 54.326765 111.131024 54.326765 C 105.483725 54.326765 100.895835 52.666304 97.371679 49.341056 C 93.85617 46.015809 92.096254 41.639801 92.096254 36.204384 C 92.096254 31.724597 93.276738 27.595064 95.637707 23.807136 C 98.007324 20.014884 101.228792 17.009622 105.302112 14.787025 C 109.371108 12.564428 113.574151 11.45313 117.902593 11.45313 C 121.357564 11.45313 124.587681 12.201202 127.588619 13.693023 C 130.593881 15.184844 132.937554 17.260421 134.619636 19.91543 C 136.31469 22.56179 137.157893 25.592997 137.157893 29.004727 Z M 112.735272 44.199679 C 115.156778 44.199679 117.388023 43.533765 119.424683 42.206261 C 121.474315 40.870108 123.104508 39.144785 124.310937 37.038939 C 125.517366 34.920121 126.118419 32.827248 126.118419 30.760319 C 126.118419 28.200441 125.149816 26.029733 123.216935 24.252521 C 121.27973 22.470984 118.957678 21.584539 116.25078 21.584539 C 114.157907 21.584539 112.078006 22.155323 110.011077 23.301214 C 107.957121 24.438458 106.292335 25.964871 105.025368 27.88478 C 103.76705 29.804689 103.140053 31.932155 103.140053 34.275827 C 103.140053 37.160014 104.030821 39.533955 105.821006 41.397651 C 107.615515 43.26567 109.920271 44.199679 112.735272 44.199679 Z M 155.020827 12.793606 C 158.648762 12.793606 161.558894 13.649782 163.742574 15.357809 C 165.930578 17.061511 167.02458 19.508963 167.02458 22.704486 C 167.02458 26.12054 166.008412 29.138775 163.980401 31.750542 C 161.956713 34.36231 159.362242 35.953585 156.192663 36.515721 L 166.220294 52.999261 L 153.213345 52.999261 L 145.801806 37.531889 L 145.685055 37.531889 L 143.237604 52.999261 L 132.781885 52.999261 L 139.13834 12.793606 Z M 146.753112 30.812208 L 148.197368 30.812208 C 150.653467 30.812208 152.556079 30.297638 153.90088 29.264174 C 155.254329 28.23071 155.933216 26.721592 155.933216 24.732498 C 155.933216 22.103434 153.762509 20.788902 149.421094 20.788902 L 148.353036 20.788902 Z M 194.378954 12.793606 L 192.986588 21.649401 L 184.355647 21.649401 L 179.395883 52.999261 L 168.940165 52.999261 L 173.899929 21.649401 L 165.268988 21.649401 L 166.648382 12.793606 Z M 194.378954 12.793606 " stroke="#000000" stroke-width="5.399997" stroke-opacity="1" stroke-miterlimit="4"/><g fill="#ffffff" fill-opacity="1"><g transform="translate(124.483312, 200.453793)"><g><path d="M 22.25 -36.328125 C 25.269531 -36.328125 27.976562 -35.660156 30.375 -34.328125 C 32.769531 -32.992188 34.648438 -31.15625 36.015625 -28.8125 C 37.378906 -26.46875 38.0625 -23.960938 38.0625 -21.296875 C 38.0625 -17.628906 37.070312 -14.148438 35.09375 -10.859375 C 33.113281 -7.566406 30.4375 -4.929688 27.0625 -2.953125 C 23.695312 -0.984375 20.179688 0 16.515625 0 L 3.078125 0 L 8.8125 -36.328125 Z M 13.78125 -8 L 15.609375 -8 C 19.429688 -8 22.472656 -9.128906 24.734375 -11.390625 C 26.992188 -13.648438 28.125 -16.582031 28.125 -20.1875 C 28.125 -22.625 27.363281 -24.585938 25.84375 -26.078125 C 24.320312 -27.578125 22.050781 -28.328125 19.03125 -28.328125 L 17 -28.328125 Z M 13.78125 -8 "/></g></g></g><g fill="#ffffff" fill-opacity="1"><g transform="translate(155.603603, 200.453793)"><g><path d="M 29.484375 -36.328125 L 28.234375 -28.328125 L 17 -28.328125 L 16.046875 -22.25 L 26.6875 -22.25 L 25.4375 -14.265625 L 14.78125 -14.265625 L 13.78125 -8 L 25 -8 L 23.75 0 L 3.078125 0 L 8.8125 -36.328125 Z M 29.484375 -36.328125 "/></g></g></g><g fill="#ffffff" fill-opacity="1"><g transform="translate(176.992613, 200.453793)"><g><path d="M 23.515625 -36.328125 C 27.015625 -36.328125 29.773438 -35.535156 31.796875 -33.953125 C 33.816406 -32.378906 34.828125 -30.070312 34.828125 -27.03125 C 34.828125 -24.613281 34.296875 -22.132812 33.234375 -19.59375 C 32.179688 -17.0625 30.460938 -15.15625 28.078125 -13.875 C 25.703125 -12.59375 23.039062 -11.984375 20.09375 -12.046875 L 14.453125 -12.046875 L 12.53125 0 L 3.078125 0 L 8.8125 -36.328125 Z M 17.046875 -28.703125 L 15.65625 -19.65625 L 17.96875 -19.65625 C 20.632812 -19.65625 22.441406 -20.132812 23.390625 -21.09375 C 24.335938 -22.0625 24.8125 -23.507812 24.8125 -25.4375 C 24.8125 -26.625 24.414062 -27.460938 23.625 -27.953125 C 22.84375 -28.453125 21.582031 -28.703125 19.84375 -28.703125 Z M 17.046875 -28.703125 "/></g></g></g><g fill="#ffffff" fill-opacity="1"><g transform="translate(203.729009, 200.453793)"><g><path d="M 44.65625 -21.671875 C 44.65625 -18.171875 43.640625 -14.539062 41.609375 -10.78125 C 39.585938 -7.03125 36.726562 -4.09375 33.03125 -1.96875 C 29.34375 0.144531 25.378906 1.203125 21.140625 1.203125 C 16.035156 1.203125 11.894531 -0.296875 8.71875 -3.296875 C 5.539062 -6.296875 3.953125 -10.253906 3.953125 -15.171875 C 3.953125 -19.222656 5.019531 -22.957031 7.15625 -26.375 C 9.289062 -29.789062 12.195312 -32.503906 15.875 -34.515625 C 19.550781 -36.523438 23.347656 -37.53125 27.265625 -37.53125 C 30.378906 -37.53125 33.289062 -36.851562 36 -35.5 C 38.71875 -34.15625 40.835938 -32.285156 42.359375 -29.890625 C 43.890625 -27.492188 44.65625 -24.753906 44.65625 -21.671875 Z M 22.59375 -7.953125 C 24.78125 -7.953125 26.796875 -8.550781 28.640625 -9.75 C 30.484375 -10.957031 31.953125 -12.515625 33.046875 -14.421875 C 34.140625 -16.335938 34.6875 -18.226562 34.6875 -20.09375 C 34.6875 -22.40625 33.8125 -24.363281 32.0625 -25.96875 C 30.3125 -27.570312 28.210938 -28.375 25.765625 -28.375 C 23.878906 -28.375 22.003906 -27.859375 20.140625 -26.828125 C 18.273438 -25.804688 16.769531 -24.425781 15.625 -22.6875 C 14.488281 -20.957031 13.921875 -19.03125 13.921875 -16.90625 C 13.921875 -14.300781 14.726562 -12.15625 16.34375 -10.46875 C 17.96875 -8.789062 20.050781 -7.953125 22.59375 -7.953125 Z M 22.59375 -7.953125 "/></g></g></g><g fill="#ffffff" fill-opacity="1"><g transform="translate(241.352864, 200.453793)"><g><path d="M 23.171875 -36.328125 C 26.441406 -36.328125 29.066406 -35.554688 31.046875 -34.015625 C 33.023438 -32.472656 34.015625 -30.253906 34.015625 -27.359375 C 34.015625 -24.273438 33.097656 -21.550781 31.265625 -19.1875 C 29.429688 -16.832031 27.085938 -15.398438 24.234375 -14.890625 L 33.28125 0 L 21.53125 0 L 14.84375 -13.96875 L 14.734375 -13.96875 L 12.53125 0 L 3.078125 0 L 8.8125 -36.328125 Z M 15.703125 -20.046875 L 17 -20.046875 C 19.21875 -20.046875 20.9375 -20.507812 22.15625 -21.4375 C 23.375 -22.363281 23.984375 -23.726562 23.984375 -25.53125 C 23.984375 -27.90625 22.023438 -29.09375 18.109375 -29.09375 L 17.15625 -29.09375 Z M 15.703125 -20.046875 "/></g></g></g><g fill="#ffffff" fill-opacity="1"><g transform="translate(269.004568, 200.453793)"><g><path d="M 31.078125 -36.328125 L 29.8125 -28.328125 L 22.015625 -28.328125 L 17.53125 0 L 8.09375 0 L 12.578125 -28.328125 L 4.765625 -28.328125 L 6.015625 -36.328125 Z M 31.078125 -36.328125 "/></g></g></g><path stroke-linecap="butt" transform="matrix(0.903363, 0, 0, 0.903363, 76.023412, 152.575538)" fill="none" stroke-linejoin="miter" d="M 29.231069 12.793606 L 24.95884 39.92745 C 24.249685 44.372644 22.537334 47.840587 19.830436 50.331279 C 17.127861 52.821972 13.65127 54.067318 9.387689 54.067318 C 5.080867 54.067318 1.937233 52.091196 -0.0518615 48.143276 L 6.992128 41.804118 C 8.336928 44.078604 9.560654 45.215847 10.663304 45.215847 C 11.662176 45.215847 12.488082 44.805056 13.1367 43.992122 C 13.79829 43.174863 14.286916 41.609532 14.6069 39.291805 L 18.775351 12.793606 Z M 43.989286 11.725549 C 48.296108 11.725549 52.330511 12.828199 56.096818 15.0335 L 50.657077 23.132574 C 48.771761 21.351037 46.605378 20.464593 44.157926 20.464593 C 42.873663 20.464593 41.706151 20.827819 40.65539 21.558595 C 39.617602 22.285047 39.094384 23.184463 39.094384 24.252521 C 39.094384 25.030862 39.466258 25.718397 40.21433 26.310801 C 40.962403 26.898881 42.328824 27.478313 44.317919 28.040448 C 47.016169 28.857707 48.966346 29.644696 50.172775 30.410065 C 51.392177 31.175434 52.330511 32.113768 53.000749 33.233715 C 53.675311 34.353661 54.016917 35.754676 54.016917 37.42811 C 54.016917 39.840968 53.394244 42.400846 52.153222 45.107744 C 50.9122 47.810318 48.87554 49.963729 46.047566 51.567977 C 43.219593 53.163577 39.868401 53.998132 35.993991 54.067318 C 31.021254 54.067318 26.541468 52.540904 22.558954 49.483752 L 28.366246 41.047397 C 31.14233 43.823481 34.00922 45.215847 36.958269 45.215847 C 38.592786 45.215847 39.967856 44.78776 41.087802 43.935908 C 42.207749 43.079733 42.76556 41.994379 42.76556 40.684171 C 42.76556 38.97182 41.061858 37.657288 37.650128 36.736251 C 33.524919 35.599008 30.856938 34.38393 29.641861 33.091019 C 28.435431 31.789459 27.834379 30.055488 27.834379 27.88478 C 27.834379 23.335807 29.386738 19.508963 32.495779 16.399921 C 35.609144 13.286556 39.440313 11.725549 43.989286 11.725549 Z M 43.989286 11.725549 " stroke="#000000" stroke-width="5.399997" stroke-opacity="1" stroke-miterlimit="4"/><g fill="#ffffff" fill-opacity="1"><g transform="translate(76.023412, 200.453793)"><g><path d="M 26.390625 -36.328125 L 22.546875 -11.796875 C 21.898438 -7.785156 20.359375 -4.65625 17.921875 -2.40625 C 15.484375 -0.15625 12.335938 0.96875 8.484375 0.96875 C 4.597656 0.96875 1.753906 -0.816406 -0.046875 -4.390625 L 6.3125 -10.109375 C 7.53125 -8.054688 8.640625 -7.03125 9.640625 -7.03125 C 10.535156 -7.03125 11.28125 -7.398438 11.875 -8.140625 C 12.46875 -8.878906 12.910156 -10.289062 13.203125 -12.375 L 16.953125 -36.328125 Z M 26.390625 -36.328125 "/></g></g></g><g fill="#ffffff" fill-opacity="1"><g transform="translate(94.473775, 200.453793)"><g><path d="M 21.296875 -37.28125 C 25.179688 -37.28125 28.828125 -36.285156 32.234375 -34.296875 L 27.3125 -26.96875 C 25.613281 -28.582031 23.65625 -29.390625 21.4375 -29.390625 C 20.28125 -29.390625 19.226562 -29.054688 18.28125 -28.390625 C 17.332031 -27.734375 16.859375 -26.925781 16.859375 -25.96875 C 16.859375 -25.257812 17.195312 -24.640625 17.875 -24.109375 C 18.550781 -23.578125 19.785156 -23.054688 21.578125 -22.546875 C 24.015625 -21.804688 25.78125 -21.085938 26.875 -20.390625 C 27.96875 -19.703125 28.816406 -18.851562 29.421875 -17.84375 C 30.035156 -16.832031 30.34375 -15.570312 30.34375 -14.0625 C 30.34375 -11.882812 29.78125 -9.570312 28.65625 -7.125 C 27.53125 -4.6875 25.691406 -2.742188 23.140625 -1.296875 C 20.585938 0.140625 17.5625 0.894531 14.0625 0.96875 C 9.570312 0.96875 5.523438 -0.410156 1.921875 -3.171875 L 7.171875 -10.796875 C 9.679688 -8.285156 12.269531 -7.03125 14.9375 -7.03125 C 16.414062 -7.03125 17.660156 -7.414062 18.671875 -8.1875 C 19.679688 -8.957031 20.1875 -9.9375 20.1875 -11.125 C 20.1875 -12.664062 18.644531 -13.851562 15.5625 -14.6875 C 11.832031 -15.71875 9.421875 -16.816406 8.328125 -17.984375 C 7.242188 -19.160156 6.703125 -20.726562 6.703125 -22.6875 C 6.703125 -26.800781 8.101562 -30.257812 10.90625 -33.0625 C 13.71875 -35.875 17.179688 -37.28125 21.296875 -37.28125 Z M 21.296875 -37.28125 "/></g></g></g><g fill="#ffffff" fill-opacity="1"><g transform="translate(128.948859, 211.756568)"><g><path d="M 6.125 -5.40625 C 5.863281 -5.71875 5.519531 -5.972656 5.09375 -6.171875 C 4.675781 -6.367188 4.257812 -6.46875 3.84375 -6.46875 C 3.289062 -6.46875 2.773438 -6.320312 2.296875 -6.03125 C 1.816406 -5.75 1.4375 -5.363281 1.15625 -4.875 C 0.882812 -4.394531 0.75 -3.882812 0.75 -3.34375 C 0.75 -2.8125 0.894531 -2.3125 1.1875 -1.84375 C 1.476562 -1.382812 1.863281 -1.015625 2.34375 -0.734375 C 2.832031 -0.453125 3.332031 -0.3125 3.84375 -0.3125 C 4.25 -0.3125 4.664062 -0.410156 5.09375 -0.609375 C 5.519531 -0.804688 5.863281 -1.050781 6.125 -1.34375 L 6.125 -0.75 C 5.425781 -0.1875 4.671875 0.09375 3.859375 0.09375 C 3.242188 0.09375 2.660156 -0.0625 2.109375 -0.375 C 1.566406 -0.695312 1.132812 -1.125 0.8125 -1.65625 C 0.488281 -2.195312 0.328125 -2.773438 0.328125 -3.390625 C 0.328125 -4.003906 0.484375 -4.578125 0.796875 -5.109375 C 1.109375 -5.648438 1.539062 -6.078125 2.09375 -6.390625 C 2.644531 -6.710938 3.238281 -6.875 3.875 -6.875 C 4.269531 -6.875 4.664062 -6.796875 5.0625 -6.640625 C 5.457031 -6.484375 5.8125 -6.269531 6.125 -6 Z M 6.125 -5.40625 "/></g></g></g><g fill="#ffffff" fill-opacity="1"><g transform="translate(135.599902, 211.756568)"><g><path d="M 4.640625 -2.078125 C 4.640625 -1.679688 4.539062 -1.316406 4.34375 -0.984375 C 4.15625 -0.648438 3.890625 -0.382812 3.546875 -0.1875 C 3.210938 0 2.847656 0.09375 2.453125 0.09375 C 2.066406 0.09375 1.703125 -0.00390625 1.359375 -0.203125 C 1.023438 -0.398438 0.757812 -0.664062 0.5625 -1 C 0.375 -1.332031 0.28125 -1.6875 0.28125 -2.0625 C 0.28125 -2.457031 0.378906 -2.820312 0.578125 -3.15625 C 0.773438 -3.5 1.039062 -3.765625 1.375 -3.953125 C 1.707031 -4.148438 2.066406 -4.25 2.453125 -4.25 C 2.847656 -4.25 3.210938 -4.15625 3.546875 -3.96875 C 3.890625 -3.78125 4.15625 -3.515625 4.34375 -3.171875 C 4.539062 -2.835938 4.640625 -2.472656 4.640625 -2.078125 Z M 2.421875 -0.28125 C 2.753906 -0.28125 3.054688 -0.359375 3.328125 -0.515625 C 3.609375 -0.671875 3.828125 -0.882812 3.984375 -1.15625 C 4.148438 -1.4375 4.234375 -1.738281 4.234375 -2.0625 C 4.234375 -2.570312 4.054688 -3 3.703125 -3.34375 C 3.359375 -3.695312 2.925781 -3.875 2.40625 -3.875 C 2.101562 -3.875 1.816406 -3.789062 1.546875 -3.625 C 1.285156 -3.46875 1.078125 -3.25 0.921875 -2.96875 C 0.765625 -2.695312 0.6875 -2.394531 0.6875 -2.0625 C 0.6875 -1.757812 0.765625 -1.46875 0.921875 -1.1875 C 1.078125 -0.914062 1.289062 -0.695312 1.5625 -0.53125 C 1.832031 -0.363281 2.117188 -0.28125 2.421875 -0.28125 Z M 2.421875 -0.28125 "/></g></g></g><g fill="#ffffff" fill-opacity="1"><g transform="translate(140.522932, 211.756568)"><g><path d="M 3.328125 -3.484375 C 3.429688 -3.734375 3.59375 -3.921875 3.8125 -4.046875 C 4.03125 -4.179688 4.273438 -4.25 4.546875 -4.25 C 4.992188 -4.25 5.316406 -4.117188 5.515625 -3.859375 C 5.722656 -3.597656 5.828125 -3.195312 5.828125 -2.65625 L 5.828125 0 L 5.421875 0 L 5.421875 -2.703125 C 5.421875 -3.117188 5.351562 -3.414062 5.21875 -3.59375 C 5.082031 -3.78125 4.851562 -3.875 4.53125 -3.875 C 4.1875 -3.875 3.921875 -3.75 3.734375 -3.5 C 3.554688 -3.25 3.46875 -2.894531 3.46875 -2.4375 L 3.46875 0 L 3.0625 0 L 3.0625 -2.609375 C 3.0625 -3.046875 2.984375 -3.363281 2.828125 -3.5625 C 2.679688 -3.769531 2.453125 -3.875 2.140625 -3.875 C 1.804688 -3.875 1.546875 -3.738281 1.359375 -3.46875 C 1.179688 -3.207031 1.09375 -2.828125 1.09375 -2.328125 L 1.09375 0 L 0.6875 0 L 0.6875 -4.15625 L 1.09375 -4.15625 L 1.09375 -3.640625 L 1.109375 -3.640625 C 1.191406 -3.816406 1.328125 -3.960938 1.515625 -4.078125 C 1.710938 -4.191406 1.925781 -4.25 2.15625 -4.25 C 2.425781 -4.25 2.660156 -4.179688 2.859375 -4.046875 C 3.066406 -3.921875 3.222656 -3.734375 3.328125 -3.484375 Z M 3.328125 -3.484375 "/></g></g></g><g fill="#ffffff" fill-opacity="1"><g transform="translate(147.047975, 211.756568)"><g><path d="M 4.640625 -2.078125 C 4.640625 -1.679688 4.539062 -1.316406 4.34375 -0.984375 C 4.15625 -0.648438 3.890625 -0.382812 3.546875 -0.1875 C 3.210938 0 2.847656 0.09375 2.453125 0.09375 C 2.066406 0.09375 1.703125 -0.00390625 1.359375 -0.203125 C 1.023438 -0.398438 0.757812 -0.664062 0.5625 -1 C 0.375 -1.332031 0.28125 -1.6875 0.28125 -2.0625 C 0.28125 -2.457031 0.378906 -2.820312 0.578125 -3.15625 C 0.773438 -3.5 1.039062 -3.765625 1.375 -3.953125 C 1.707031 -4.148438 2.066406 -4.25 2.453125 -4.25 C 2.847656 -4.25 3.210938 -4.15625 3.546875 -3.96875 C 3.890625 -3.78125 4.15625 -3.515625 4.34375 -3.171875 C 4.539062 -2.835938 4.640625 -2.472656 4.640625 -2.078125 Z M 2.421875 -0.28125 C 2.753906 -0.28125 3.054688 -0.359375 3.328125 -0.515625 C 3.609375 -0.671875 3.828125 -0.882812 3.984375 -1.15625 C 4.148438 -1.4375 4.234375 -1.738281 4.234375 -2.0625 C 4.234375 -2.570312 4.054688 -3 3.703125 -3.34375 C 3.359375 -3.695312 2.925781 -3.875 2.40625 -3.875 C 2.101562 -3.875 1.816406 -3.789062 1.546875 -3.625 C 1.285156 -3.46875 1.078125 -3.25 0.921875 -2.96875 C 0.765625 -2.695312 0.6875 -2.394531 0.6875 -2.0625 C 0.6875 -1.757812 0.765625 -1.46875 0.921875 -1.1875 C 1.078125 -0.914062 1.289062 -0.695312 1.5625 -0.53125 C 1.832031 -0.363281 2.117188 -0.28125 2.421875 -0.28125 Z M 2.421875 -0.28125 "/></g></g></g><g fill="#ffffff" fill-opacity="1"><g transform="translate(151.971006, 211.756568)"><g><path d="M 3.9375 -7.421875 L 4.34375 -7.421875 L 4.34375 0 L 3.9375 0 L 3.9375 -0.75 L 3.921875 -0.75 C 3.765625 -0.5 3.546875 -0.296875 3.265625 -0.140625 C 2.984375 0.015625 2.675781 0.09375 2.34375 0.09375 C 1.945312 0.09375 1.59375 0 1.28125 -0.1875 C 0.96875 -0.375 0.722656 -0.632812 0.546875 -0.96875 C 0.367188 -1.300781 0.28125 -1.679688 0.28125 -2.109375 C 0.28125 -2.734375 0.46875 -3.242188 0.84375 -3.640625 C 1.21875 -4.046875 1.710938 -4.25 2.328125 -4.25 C 2.648438 -4.25 2.953125 -4.175781 3.234375 -4.03125 C 3.523438 -3.882812 3.753906 -3.6875 3.921875 -3.4375 L 3.9375 -3.4375 Z M 2.328125 -0.28125 C 2.816406 -0.28125 3.210938 -0.453125 3.515625 -0.796875 C 3.816406 -1.148438 3.96875 -1.601562 3.96875 -2.15625 C 3.96875 -2.65625 3.8125 -3.066406 3.5 -3.390625 C 3.1875 -3.710938 2.785156 -3.875 2.296875 -3.875 C 2.015625 -3.875 1.75 -3.789062 1.5 -3.625 C 1.25 -3.46875 1.050781 -3.25 0.90625 -2.96875 C 0.757812 -2.695312 0.6875 -2.410156 0.6875 -2.109375 C 0.6875 -1.773438 0.757812 -1.46875 0.90625 -1.1875 C 1.050781 -0.90625 1.25 -0.679688 1.5 -0.515625 C 1.75 -0.359375 2.023438 -0.28125 2.328125 -0.28125 Z M 2.328125 -0.28125 "/></g></g></g><g fill="#ffffff" fill-opacity="1"><g transform="translate(157.011041, 211.756568)"><g><path d="M 1.421875 -5.546875 C 1.421875 -5.441406 1.382812 -5.351562 1.3125 -5.28125 C 1.238281 -5.207031 1.148438 -5.171875 1.046875 -5.171875 C 0.953125 -5.171875 0.867188 -5.207031 0.796875 -5.28125 C 0.722656 -5.351562 0.6875 -5.441406 0.6875 -5.546875 C 0.6875 -5.648438 0.722656 -5.734375 0.796875 -5.796875 C 0.867188 -5.867188 0.953125 -5.90625 1.046875 -5.90625 C 1.148438 -5.90625 1.238281 -5.867188 1.3125 -5.796875 C 1.382812 -5.734375 1.421875 -5.648438 1.421875 -5.546875 Z M 0.84375 -4.15625 L 1.25 -4.15625 L 1.25 0 L 0.84375 0 Z M 0.84375 -4.15625 "/></g></g></g><g fill="#ffffff" fill-opacity="1"><g transform="translate(159.117051, 211.756568)"><g><path d="M 3.9375 -7.421875 L 4.34375 -7.421875 L 4.34375 0 L 3.9375 0 L 3.9375 -0.75 L 3.921875 -0.75 C 3.765625 -0.5 3.546875 -0.296875 3.265625 -0.140625 C 2.984375 0.015625 2.675781 0.09375 2.34375 0.09375 C 1.945312 0.09375 1.59375 0 1.28125 -0.1875 C 0.96875 -0.375 0.722656 -0.632812 0.546875 -0.96875 C 0.367188 -1.300781 0.28125 -1.679688 0.28125 -2.109375 C 0.28125 -2.734375 0.46875 -3.242188 0.84375 -3.640625 C 1.21875 -4.046875 1.710938 -4.25 2.328125 -4.25 C 2.648438 -4.25 2.953125 -4.175781 3.234375 -4.03125 C 3.523438 -3.882812 3.753906 -3.6875 3.921875 -3.4375 L 3.9375 -3.4375 Z M 2.328125 -0.28125 C 2.816406 -0.28125 3.210938 -0.453125 3.515625 -0.796875 C 3.816406 -1.148438 3.96875 -1.601562 3.96875 -2.15625 C 3.96875 -2.65625 3.8125 -3.066406 3.5 -3.390625 C 3.1875 -3.710938 2.785156 -3.875 2.296875 -3.875 C 2.015625 -3.875 1.75 -3.789062 1.5 -3.625 C 1.25 -3.46875 1.050781 -3.25 0.90625 -2.96875 C 0.757812 -2.695312 0.6875 -2.410156 0.6875 -2.109375 C 0.6875 -1.773438 0.757812 -1.46875 0.90625 -1.1875 C 1.050781 -0.90625 1.25 -0.679688 1.5 -0.515625 C 1.75 -0.359375 2.023438 -0.28125 2.328125 -0.28125 Z M 2.328125 -0.28125 "/></g></g></g><g fill="#ffffff" fill-opacity="1"><g transform="translate(164.157086, 211.756568)"><g><path d="M 3.9375 -3.4375 L 3.9375 -4.15625 L 4.34375 -4.15625 L 4.34375 0 L 3.9375 0 L 3.9375 -0.75 L 3.921875 -0.75 C 3.773438 -0.5 3.554688 -0.296875 3.265625 -0.140625 C 2.972656 0.015625 2.664062 0.09375 2.34375 0.09375 C 1.945312 0.09375 1.59375 0 1.28125 -0.1875 C 0.96875 -0.375 0.722656 -0.632812 0.546875 -0.96875 C 0.367188 -1.3125 0.28125 -1.691406 0.28125 -2.109375 C 0.28125 -2.734375 0.46875 -3.242188 0.84375 -3.640625 C 1.21875 -4.046875 1.710938 -4.25 2.328125 -4.25 C 2.648438 -4.25 2.953125 -4.175781 3.234375 -4.03125 C 3.523438 -3.882812 3.753906 -3.6875 3.921875 -3.4375 Z M 2.328125 -0.28125 C 2.816406 -0.28125 3.210938 -0.453125 3.515625 -0.796875 C 3.816406 -1.148438 3.96875 -1.601562 3.96875 -2.15625 C 3.96875 -2.65625 3.8125 -3.066406 3.5 -3.390625 C 3.1875 -3.710938 2.785156 -3.875 2.296875 -3.875 C 2.003906 -3.875 1.734375 -3.796875 1.484375 -3.640625 C 1.242188 -3.484375 1.050781 -3.265625 0.90625 -2.984375 C 0.757812 -2.710938 0.6875 -2.421875 0.6875 -2.109375 C 0.6875 -1.773438 0.757812 -1.46875 0.90625 -1.1875 C 1.050781 -0.90625 1.25 -0.679688 1.5 -0.515625 C 1.75 -0.359375 2.023438 -0.28125 2.328125 -0.28125 Z M 2.328125 -0.28125 "/></g></g></g><g fill="#ffffff" fill-opacity="1"><g transform="translate(169.197121, 211.756568)"><g><path d="M 3.9375 -7.421875 L 4.34375 -7.421875 L 4.34375 0 L 3.9375 0 L 3.9375 -0.75 L 3.921875 -0.75 C 3.765625 -0.5 3.546875 -0.296875 3.265625 -0.140625 C 2.984375 0.015625 2.675781 0.09375 2.34375 0.09375 C 1.945312 0.09375 1.59375 0 1.28125 -0.1875 C 0.96875 -0.375 0.722656 -0.632812 0.546875 -0.96875 C 0.367188 -1.300781 0.28125 -1.679688 0.28125 -2.109375 C 0.28125 -2.734375 0.46875 -3.242188 0.84375 -3.640625 C 1.21875 -4.046875 1.710938 -4.25 2.328125 -4.25 C 2.648438 -4.25 2.953125 -4.175781 3.234375 -4.03125 C 3.523438 -3.882812 3.753906 -3.6875 3.921875 -3.4375 L 3.9375 -3.4375 Z M 2.328125 -0.28125 C 2.816406 -0.28125 3.210938 -0.453125 3.515625 -0.796875 C 3.816406 -1.148438 3.96875 -1.601562 3.96875 -2.15625 C 3.96875 -2.65625 3.8125 -3.066406 3.5 -3.390625 C 3.1875 -3.710938 2.785156 -3.875 2.296875 -3.875 C 2.015625 -3.875 1.75 -3.789062 1.5 -3.625 C 1.25 -3.46875 1.050781 -3.25 0.90625 -2.96875 C 0.757812 -2.695312 0.6875 -2.410156 0.6875 -2.109375 C 0.6875 -1.773438 0.757812 -1.46875 0.90625 -1.1875 C 1.050781 -0.90625 1.25 -0.679688 1.5 -0.515625 C 1.75 -0.359375 2.023438 -0.28125 2.328125 -0.28125 Z M 2.328125 -0.28125 "/></g></g></g><g fill="#ffffff" fill-opacity="1"><g transform="translate(174.237156, 211.756568)"><g/></g></g><g fill="#ffffff" fill-opacity="1"><g transform="translate(177.027179, 211.756568)"><g><path d="M -0.0625 -4.15625 L 0.359375 -4.15625 L 2.140625 -0.390625 L 3.71875 -4.15625 L 4.140625 -4.15625 L 1.34375 2.4375 L 0.9375 2.4375 L 1.9375 0.078125 Z M -0.0625 -4.15625 "/></g></g></g><g fill="#ffffff" fill-opacity="1"><g transform="translate(181.167205, 211.756568)"><g/></g></g><g fill="#ffffff" fill-opacity="1"><g transform="translate(183.957229, 211.756568)"><g><path d="M 0.6875 -2.046875 L 0.6875 -1.984375 C 0.6875 -1.492188 0.84375 -1.085938 1.15625 -0.765625 C 1.46875 -0.441406 1.867188 -0.28125 2.359375 -0.28125 C 2.660156 -0.28125 2.9375 -0.363281 3.1875 -0.53125 C 3.445312 -0.695312 3.660156 -0.929688 3.828125 -1.234375 L 4.171875 -1.03125 C 3.972656 -0.675781 3.71875 -0.398438 3.40625 -0.203125 C 3.09375 -0.00390625 2.722656 0.09375 2.296875 0.09375 C 1.921875 0.09375 1.578125 0 1.265625 -0.1875 C 0.960938 -0.382812 0.722656 -0.644531 0.546875 -0.96875 C 0.367188 -1.300781 0.28125 -1.675781 0.28125 -2.09375 C 0.28125 -2.488281 0.367188 -2.851562 0.546875 -3.1875 C 0.722656 -3.519531 0.96875 -3.78125 1.28125 -3.96875 C 1.59375 -4.15625 1.929688 -4.25 2.296875 -4.25 C 2.890625 -4.25 3.367188 -4.039062 3.734375 -3.625 C 4.109375 -3.207031 4.296875 -2.679688 4.296875 -2.046875 Z M 3.890625 -2.421875 C 3.835938 -2.835938 3.660156 -3.179688 3.359375 -3.453125 C 3.054688 -3.734375 2.703125 -3.875 2.296875 -3.875 C 2.035156 -3.875 1.78125 -3.804688 1.53125 -3.671875 C 1.289062 -3.535156 1.09375 -3.351562 0.9375 -3.125 C 0.789062 -2.90625 0.707031 -2.671875 0.6875 -2.421875 Z M 3.890625 -2.421875 "/></g></g></g><g fill="#ffffff" fill-opacity="1"><g transform="translate(188.547259, 211.756568)"><g><path d="M 2.4375 -3.40625 C 2.375 -3.550781 2.273438 -3.664062 2.140625 -3.75 C 2.015625 -3.832031 1.867188 -3.875 1.703125 -3.875 C 1.523438 -3.875 1.363281 -3.804688 1.21875 -3.671875 C 1.070312 -3.546875 1 -3.394531 1 -3.21875 C 1 -3.101562 1.023438 -3.003906 1.078125 -2.921875 C 1.128906 -2.847656 1.203125 -2.773438 1.296875 -2.703125 C 1.390625 -2.640625 1.570312 -2.5625 1.84375 -2.46875 C 1.976562 -2.414062 2.113281 -2.359375 2.25 -2.296875 C 2.394531 -2.242188 2.523438 -2.171875 2.640625 -2.078125 C 2.753906 -1.984375 2.847656 -1.863281 2.921875 -1.71875 C 2.992188 -1.582031 3.03125 -1.410156 3.03125 -1.203125 C 3.03125 -0.828125 2.898438 -0.515625 2.640625 -0.265625 C 2.378906 -0.0234375 2.0625 0.09375 1.6875 0.09375 C 1.320312 0.09375 1.007812 -0.00390625 0.75 -0.203125 C 0.5 -0.398438 0.332031 -0.671875 0.25 -1.015625 L 0.640625 -1.140625 C 0.828125 -0.566406 1.175781 -0.28125 1.6875 -0.28125 C 1.9375 -0.28125 2.15625 -0.367188 2.34375 -0.546875 C 2.53125 -0.734375 2.625 -0.957031 2.625 -1.21875 C 2.625 -1.570312 2.421875 -1.820312 2.015625 -1.96875 L 1.703125 -2.078125 C 1.285156 -2.234375 0.992188 -2.394531 0.828125 -2.5625 C 0.671875 -2.738281 0.59375 -2.945312 0.59375 -3.1875 C 0.59375 -3.488281 0.695312 -3.738281 0.90625 -3.9375 C 1.125 -4.144531 1.398438 -4.25 1.734375 -4.25 C 1.941406 -4.25 2.144531 -4.1875 2.34375 -4.0625 C 2.550781 -3.9375 2.703125 -3.773438 2.796875 -3.578125 Z M 2.4375 -3.40625 "/></g></g></g><g fill="#ffffff" fill-opacity="1"><g transform="translate(191.922282, 211.756568)"><g><path d="M 0.734375 -5.640625 L 1.140625 -5.640625 L 1.140625 -4.15625 L 1.875 -4.15625 L 1.875 -3.78125 L 1.140625 -3.78125 L 1.140625 0 L 0.734375 0 L 0.734375 -3.78125 L 0.28125 -3.78125 L 0.28125 -4.15625 L 0.734375 -4.15625 Z M 0.734375 -5.640625 "/></g></g></g><g fill="#ffffff" fill-opacity="1"><g transform="translate(193.80329, 211.756568)"><g><path d="M 1.421875 -5.546875 C 1.421875 -5.441406 1.382812 -5.351562 1.3125 -5.28125 C 1.238281 -5.207031 1.148438 -5.171875 1.046875 -5.171875 C 0.953125 -5.171875 0.867188 -5.207031 0.796875 -5.28125 C 0.722656 -5.351562 0.6875 -5.441406 0.6875 -5.546875 C 0.6875 -5.648438 0.722656 -5.734375 0.796875 -5.796875 C 0.867188 -5.867188 0.953125 -5.90625 1.046875 -5.90625 C 1.148438 -5.90625 1.238281 -5.867188 1.3125 -5.796875 C 1.382812 -5.734375 1.421875 -5.648438 1.421875 -5.546875 Z M 0.84375 -4.15625 L 1.25 -4.15625 L 1.25 0 L 0.84375 0 Z M 0.84375 -4.15625 "/></g></g></g><g fill="#ffffff" fill-opacity="1"><g transform="translate(195.9093, 211.756568)"><g><path d="M 0.6875 -7.421875 L 1.09375 -7.421875 L 1.09375 0 L 0.6875 0 Z M 0.6875 -7.421875 "/></g></g></g><g fill="#ffffff" fill-opacity="1"><g transform="translate(197.700312, 211.756568)"><g><path d="M 4.640625 -2.078125 C 4.640625 -1.679688 4.539062 -1.316406 4.34375 -0.984375 C 4.15625 -0.648438 3.890625 -0.382812 3.546875 -0.1875 C 3.210938 0 2.847656 0.09375 2.453125 0.09375 C 2.066406 0.09375 1.703125 -0.00390625 1.359375 -0.203125 C 1.023438 -0.398438 0.757812 -0.664062 0.5625 -1 C 0.375 -1.332031 0.28125 -1.6875 0.28125 -2.0625 C 0.28125 -2.457031 0.378906 -2.820312 0.578125 -3.15625 C 0.773438 -3.5 1.039062 -3.765625 1.375 -3.953125 C 1.707031 -4.148438 2.066406 -4.25 2.453125 -4.25 C 2.847656 -4.25 3.210938 -4.15625 3.546875 -3.96875 C 3.890625 -3.78125 4.15625 -3.515625 4.34375 -3.171875 C 4.539062 -2.835938 4.640625 -2.472656 4.640625 -2.078125 Z M 2.421875 -0.28125 C 2.753906 -0.28125 3.054688 -0.359375 3.328125 -0.515625 C 3.609375 -0.671875 3.828125 -0.882812 3.984375 -1.15625 C 4.148438 -1.4375 4.234375 -1.738281 4.234375 -2.0625 C 4.234375 -2.570312 4.054688 -3 3.703125 -3.34375 C 3.359375 -3.695312 2.925781 -3.875 2.40625 -3.875 C 2.101562 -3.875 1.816406 -3.789062 1.546875 -3.625 C 1.285156 -3.46875 1.078125 -3.25 0.921875 -2.96875 C 0.765625 -2.695312 0.6875 -2.394531 0.6875 -2.0625 C 0.6875 -1.757812 0.765625 -1.46875 0.921875 -1.1875 C 1.078125 -0.914062 1.289062 -0.695312 1.5625 -0.53125 C 1.832031 -0.363281 2.117188 -0.28125 2.421875 -0.28125 Z M 2.421875 -0.28125 "/></g></g></g><g fill="#ffffff" fill-opacity="1"><g transform="translate(202.623342, 211.756568)"><g><path d="M 1.375 -0.671875 L 1.78125 -0.546875 L 1.03125 1.5 L 0.765625 1.390625 Z M 1.375 -0.671875 "/></g></g></g><g fill="#ffffff" fill-opacity="1"><g transform="translate(205.413366, 211.756568)"><g/></g></g><g fill="#ffffff" fill-opacity="1"><g transform="translate(208.20339, 211.756568)"><g><path d="M 2.4375 -3.40625 C 2.375 -3.550781 2.273438 -3.664062 2.140625 -3.75 C 2.015625 -3.832031 1.867188 -3.875 1.703125 -3.875 C 1.523438 -3.875 1.363281 -3.804688 1.21875 -3.671875 C 1.070312 -3.546875 1 -3.394531 1 -3.21875 C 1 -3.101562 1.023438 -3.003906 1.078125 -2.921875 C 1.128906 -2.847656 1.203125 -2.773438 1.296875 -2.703125 C 1.390625 -2.640625 1.570312 -2.5625 1.84375 -2.46875 C 1.976562 -2.414062 2.113281 -2.359375 2.25 -2.296875 C 2.394531 -2.242188 2.523438 -2.171875 2.640625 -2.078125 C 2.753906 -1.984375 2.847656 -1.863281 2.921875 -1.71875 C 2.992188 -1.582031 3.03125 -1.410156 3.03125 -1.203125 C 3.03125 -0.828125 2.898438 -0.515625 2.640625 -0.265625 C 2.378906 -0.0234375 2.0625 0.09375 1.6875 0.09375 C 1.320312 0.09375 1.007812 -0.00390625 0.75 -0.203125 C 0.5 -0.398438 0.332031 -0.671875 0.25 -1.015625 L 0.640625 -1.140625 C 0.828125 -0.566406 1.175781 -0.28125 1.6875 -0.28125 C 1.9375 -0.28125 2.15625 -0.367188 2.34375 -0.546875 C 2.53125 -0.734375 2.625 -0.957031 2.625 -1.21875 C 2.625 -1.570312 2.421875 -1.820312 2.015625 -1.96875 L 1.703125 -2.078125 C 1.285156 -2.234375 0.992188 -2.394531 0.828125 -2.5625 C 0.671875 -2.738281 0.59375 -2.945312 0.59375 -3.1875 C 0.59375 -3.488281 0.695312 -3.738281 0.90625 -3.9375 C 1.125 -4.144531 1.398438 -4.25 1.734375 -4.25 C 1.941406 -4.25 2.144531 -4.1875 2.34375 -4.0625 C 2.550781 -3.9375 2.703125 -3.773438 2.796875 -3.578125 Z M 2.4375 -3.40625 "/></g></g></g><g fill="#ffffff" fill-opacity="1"><g transform="translate(211.578412, 211.756568)"><g><path d="M 1.421875 -5.546875 C 1.421875 -5.441406 1.382812 -5.351562 1.3125 -5.28125 C 1.238281 -5.207031 1.148438 -5.171875 1.046875 -5.171875 C 0.953125 -5.171875 0.867188 -5.207031 0.796875 -5.28125 C 0.722656 -5.351562 0.6875 -5.441406 0.6875 -5.546875 C 0.6875 -5.648438 0.722656 -5.734375 0.796875 -5.796875 C 0.867188 -5.867188 0.953125 -5.90625 1.046875 -5.90625 C 1.148438 -5.90625 1.238281 -5.867188 1.3125 -5.796875 C 1.382812 -5.734375 1.421875 -5.648438 1.421875 -5.546875 Z M 0.84375 -4.15625 L 1.25 -4.15625 L 1.25 0 L 0.84375 0 Z M 0.84375 -4.15625 "/></g></g></g><g fill="#ffffff" fill-opacity="1"><g transform="translate(213.684422, 211.756568)"><g><path d="M 3.71875 0 L 3.3125 0 L 3.3125 -2.5625 C 3.3125 -3.050781 3.226562 -3.390625 3.0625 -3.578125 C 2.90625 -3.773438 2.65625 -3.875 2.3125 -3.875 C 1.5 -3.875 1.09375 -3.28125 1.09375 -2.09375 L 1.09375 0 L 0.6875 0 L 0.6875 -4.15625 L 1.09375 -4.15625 L 1.09375 -3.515625 L 1.109375 -3.515625 C 1.242188 -3.742188 1.414062 -3.921875 1.625 -4.046875 C 1.832031 -4.179688 2.070312 -4.25 2.34375 -4.25 C 2.8125 -4.25 3.15625 -4.113281 3.375 -3.84375 C 3.601562 -3.570312 3.71875 -3.140625 3.71875 -2.546875 Z M 3.71875 0 "/></g></g></g><g fill="#ffffff" fill-opacity="1"><g transform="translate(218.094449, 211.756568)"><g/></g></g><g fill="#ffffff" fill-opacity="1"><g transform="translate(220.884472, 211.756568)"><g><path d="M 0.6875 -7.421875 L 1.09375 -7.421875 L 1.09375 0 L 0.6875 0 Z M 0.6875 -7.421875 "/></g></g></g><g fill="#ffffff" fill-opacity="1"><g transform="translate(222.675484, 211.756568)"><g><path d="M 0.84375 -4.15625 L 1.25 -4.15625 L 1.25 0 L 0.84375 0 Z M 1.375 -6.421875 L 1.9375 -6.25 L 0.8125 -4.953125 L 0.46875 -5.109375 Z M 1.375 -6.421875 "/></g></g></g><g fill="#ffffff" fill-opacity="1"><g transform="translate(224.781494, 211.756568)"><g><path d="M 3.328125 -3.484375 C 3.429688 -3.734375 3.59375 -3.921875 3.8125 -4.046875 C 4.03125 -4.179688 4.273438 -4.25 4.546875 -4.25 C 4.992188 -4.25 5.316406 -4.117188 5.515625 -3.859375 C 5.722656 -3.597656 5.828125 -3.195312 5.828125 -2.65625 L 5.828125 0 L 5.421875 0 L 5.421875 -2.703125 C 5.421875 -3.117188 5.351562 -3.414062 5.21875 -3.59375 C 5.082031 -3.78125 4.851562 -3.875 4.53125 -3.875 C 4.1875 -3.875 3.921875 -3.75 3.734375 -3.5 C 3.554688 -3.25 3.46875 -2.894531 3.46875 -2.4375 L 3.46875 0 L 3.0625 0 L 3.0625 -2.609375 C 3.0625 -3.046875 2.984375 -3.363281 2.828125 -3.5625 C 2.679688 -3.769531 2.453125 -3.875 2.140625 -3.875 C 1.804688 -3.875 1.546875 -3.738281 1.359375 -3.46875 C 1.179688 -3.207031 1.09375 -2.828125 1.09375 -2.328125 L 1.09375 0 L 0.6875 0 L 0.6875 -4.15625 L 1.09375 -4.15625 L 1.09375 -3.640625 L 1.109375 -3.640625 C 1.191406 -3.816406 1.328125 -3.960938 1.515625 -4.078125 C 1.710938 -4.191406 1.925781 -4.25 2.15625 -4.25 C 2.425781 -4.25 2.660156 -4.179688 2.859375 -4.046875 C 3.066406 -3.921875 3.222656 -3.734375 3.328125 -3.484375 Z M 3.328125 -3.484375 "/></g></g></g><g fill="#ffffff" fill-opacity="1"><g transform="translate(231.306537, 211.756568)"><g><path d="M 1.421875 -5.546875 C 1.421875 -5.441406 1.382812 -5.351562 1.3125 -5.28125 C 1.238281 -5.207031 1.148438 -5.171875 1.046875 -5.171875 C 0.953125 -5.171875 0.867188 -5.207031 0.796875 -5.28125 C 0.722656 -5.351562 0.6875 -5.441406 0.6875 -5.546875 C 0.6875 -5.648438 0.722656 -5.734375 0.796875 -5.796875 C 0.867188 -5.867188 0.953125 -5.90625 1.046875 -5.90625 C 1.148438 -5.90625 1.238281 -5.867188 1.3125 -5.796875 C 1.382812 -5.734375 1.421875 -5.648438 1.421875 -5.546875 Z M 0.84375 -4.15625 L 1.25 -4.15625 L 1.25 0 L 0.84375 0 Z M 0.84375 -4.15625 "/></g></g></g><g fill="#ffffff" fill-opacity="1"><g transform="translate(233.412548, 211.756568)"><g><path d="M 0.734375 -5.640625 L 1.140625 -5.640625 L 1.140625 -4.15625 L 1.875 -4.15625 L 1.875 -3.78125 L 1.140625 -3.78125 L 1.140625 0 L 0.734375 0 L 0.734375 -3.78125 L 0.28125 -3.78125 L 0.28125 -4.15625 L 0.734375 -4.15625 Z M 0.734375 -5.640625 "/></g></g></g><g fill="#ffffff" fill-opacity="1"><g transform="translate(235.293556, 211.756568)"><g><path d="M 0.6875 -2.046875 L 0.6875 -1.984375 C 0.6875 -1.492188 0.84375 -1.085938 1.15625 -0.765625 C 1.46875 -0.441406 1.867188 -0.28125 2.359375 -0.28125 C 2.660156 -0.28125 2.9375 -0.363281 3.1875 -0.53125 C 3.445312 -0.695312 3.660156 -0.929688 3.828125 -1.234375 L 4.171875 -1.03125 C 3.972656 -0.675781 3.71875 -0.398438 3.40625 -0.203125 C 3.09375 -0.00390625 2.722656 0.09375 2.296875 0.09375 C 1.921875 0.09375 1.578125 0 1.265625 -0.1875 C 0.960938 -0.382812 0.722656 -0.644531 0.546875 -0.96875 C 0.367188 -1.300781 0.28125 -1.675781 0.28125 -2.09375 C 0.28125 -2.488281 0.367188 -2.851562 0.546875 -3.1875 C 0.722656 -3.519531 0.96875 -3.78125 1.28125 -3.96875 C 1.59375 -4.15625 1.929688 -4.25 2.296875 -4.25 C 2.890625 -4.25 3.367188 -4.039062 3.734375 -3.625 C 4.109375 -3.207031 4.296875 -2.679688 4.296875 -2.046875 Z M 3.890625 -2.421875 C 3.835938 -2.835938 3.660156 -3.179688 3.359375 -3.453125 C 3.054688 -3.734375 2.703125 -3.875 2.296875 -3.875 C 2.035156 -3.875 1.78125 -3.804688 1.53125 -3.671875 C 1.289062 -3.535156 1.09375 -3.351562 0.9375 -3.125 C 0.789062 -2.90625 0.707031 -2.671875 0.6875 -2.421875 Z M 3.890625 -2.421875 "/></g></g></g><g fill="#ffffff" fill-opacity="1"><g transform="translate(239.883586, 211.756568)"><g><path d="M 2.4375 -3.40625 C 2.375 -3.550781 2.273438 -3.664062 2.140625 -3.75 C 2.015625 -3.832031 1.867188 -3.875 1.703125 -3.875 C 1.523438 -3.875 1.363281 -3.804688 1.21875 -3.671875 C 1.070312 -3.546875 1 -3.394531 1 -3.21875 C 1 -3.101562 1.023438 -3.003906 1.078125 -2.921875 C 1.128906 -2.847656 1.203125 -2.773438 1.296875 -2.703125 C 1.390625 -2.640625 1.570312 -2.5625 1.84375 -2.46875 C 1.976562 -2.414062 2.113281 -2.359375 2.25 -2.296875 C 2.394531 -2.242188 2.523438 -2.171875 2.640625 -2.078125 C 2.753906 -1.984375 2.847656 -1.863281 2.921875 -1.71875 C 2.992188 -1.582031 3.03125 -1.410156 3.03125 -1.203125 C 3.03125 -0.828125 2.898438 -0.515625 2.640625 -0.265625 C 2.378906 -0.0234375 2.0625 0.09375 1.6875 0.09375 C 1.320312 0.09375 1.007812 -0.00390625 0.75 -0.203125 C 0.5 -0.398438 0.332031 -0.671875 0.25 -1.015625 L 0.640625 -1.140625 C 0.828125 -0.566406 1.175781 -0.28125 1.6875 -0.28125 C 1.9375 -0.28125 2.15625 -0.367188 2.34375 -0.546875 C 2.53125 -0.734375 2.625 -0.957031 2.625 -1.21875 C 2.625 -1.570312 2.421875 -1.820312 2.015625 -1.96875 L 1.703125 -2.078125 C 1.285156 -2.234375 0.992188 -2.394531 0.828125 -2.5625 C 0.671875 -2.738281 0.59375 -2.945312 0.59375 -3.1875 C 0.59375 -3.488281 0.695312 -3.738281 0.90625 -3.9375 C 1.125 -4.144531 1.398438 -4.25 1.734375 -4.25 C 1.941406 -4.25 2.144531 -4.1875 2.34375 -4.0625 C 2.550781 -3.9375 2.703125 -3.773438 2.796875 -3.578125 Z M 2.4375 -3.40625 "/></g></g></g><g fill="#ffffff" fill-opacity="1"><g transform="translate(243.258609, 211.756568)"><g><path d="M 1.765625 -0.28125 C 1.765625 -0.175781 1.726562 -0.0859375 1.65625 -0.015625 C 1.582031 0.0546875 1.492188 0.09375 1.390625 0.09375 C 1.285156 0.09375 1.195312 0.0546875 1.125 -0.015625 C 1.0625 -0.0859375 1.03125 -0.175781 1.03125 -0.28125 C 1.03125 -0.382812 1.0625 -0.46875 1.125 -0.53125 C 1.195312 -0.601562 1.285156 -0.640625 1.390625 -0.640625 C 1.492188 -0.640625 1.582031 -0.601562 1.65625 -0.53125 C 1.726562 -0.46875 1.765625 -0.382812 1.765625 -0.28125 Z M 1.765625 -0.28125 "/></g></g></g></svg>